<svg xmlns="http://www.w3.org/2000/svg" xmlns:xlink="http://www.w3.org/1999/xlink" width="500" zoomAndPan="magnify" viewBox="0 0 375 374.999991" height="500" preserveAspectRatio="xMidYMid meet" version="1.0"><defs><clipPath id="232f4f21f9"><path d="M 81 90.824219 L 287.984375 90.824219 L 287.984375 298 L 81 298 Z M 81 90.824219 " clip-rule="nonzero"/></clipPath></defs><g clip-path="url(#232f4f21f9)"><path fill="#ff5757" d="M 288.003906 194.085938 C 288.003906 195.777344 287.964844 197.464844 287.878906 199.152344 C 287.796875 200.839844 287.675781 202.523438 287.507812 204.203125 C 287.34375 205.886719 287.136719 207.5625 286.890625 209.230469 C 286.640625 210.902344 286.351562 212.566406 286.023438 214.222656 C 285.695312 215.878906 285.324219 217.527344 284.914062 219.167969 C 284.503906 220.804688 284.054688 222.433594 283.5625 224.050781 C 283.074219 225.664062 282.542969 227.269531 281.976562 228.859375 C 281.40625 230.449219 280.800781 232.023438 280.152344 233.585938 C 279.507812 235.148438 278.824219 236.691406 278.101562 238.21875 C 277.378906 239.746094 276.621094 241.253906 275.824219 242.742188 C 275.027344 244.234375 274.195312 245.703125 273.328125 247.152344 C 272.457031 248.601562 271.554688 250.027344 270.617188 251.429688 C 269.679688 252.835938 268.707031 254.214844 267.699219 255.574219 C 266.695312 256.929688 265.65625 258.261719 264.582031 259.566406 C 263.511719 260.875 262.410156 262.152344 261.277344 263.402344 C 260.140625 264.65625 258.976562 265.878906 257.78125 267.074219 C 256.589844 268.265625 255.367188 269.433594 254.113281 270.566406 C 252.863281 271.699219 251.582031 272.804688 250.277344 273.875 C 248.972656 274.949219 247.640625 275.988281 246.285156 276.992188 C 244.929688 278 243.546875 278.972656 242.144531 279.910156 C 240.738281 280.847656 239.3125 281.753906 237.863281 282.621094 C 236.414062 283.488281 234.945312 284.320312 233.457031 285.117188 C 231.964844 285.914062 230.457031 286.671875 228.929688 287.394531 C 227.402344 288.117188 225.859375 288.800781 224.300781 289.449219 C 222.738281 290.097656 221.164062 290.703125 219.574219 291.273438 C 217.984375 291.84375 216.378906 292.371094 214.761719 292.863281 C 213.148438 293.351562 211.519531 293.804688 209.878906 294.214844 C 208.242188 294.625 206.59375 294.996094 204.9375 295.324219 C 203.28125 295.652344 201.617188 295.941406 199.945312 296.191406 C 198.277344 296.4375 196.601562 296.644531 194.917969 296.8125 C 193.238281 296.976562 191.554688 297.101562 189.867188 297.183594 C 188.179688 297.265625 186.492188 297.308594 184.800781 297.308594 C 183.113281 297.308594 181.425781 297.265625 179.738281 297.183594 C 178.050781 297.101562 176.367188 296.976562 174.6875 296.8125 C 173.003906 296.644531 171.328125 296.4375 169.65625 296.191406 C 167.988281 295.945312 166.324219 295.65625 164.667969 295.324219 C 163.007812 294.996094 161.363281 294.625 159.722656 294.214844 C 158.085938 293.804688 156.457031 293.355469 154.839844 292.863281 C 153.226562 292.375 151.621094 291.84375 150.03125 291.277344 C 148.441406 290.707031 146.863281 290.097656 145.304688 289.453125 C 143.742188 288.804688 142.199219 288.121094 140.671875 287.398438 C 139.144531 286.675781 137.636719 285.917969 136.148438 285.121094 C 134.65625 284.324219 133.1875 283.492188 131.738281 282.625 C 130.292969 281.757812 128.863281 280.851562 127.460938 279.914062 C 126.054688 278.976562 124.675781 278.003906 123.316406 276.996094 C 121.960938 275.992188 120.628906 274.953125 119.324219 273.882812 C 118.019531 272.808594 116.738281 271.707031 115.488281 270.574219 C 114.238281 269.4375 113.015625 268.273438 111.820312 267.078125 C 110.625 265.886719 109.460938 264.660156 108.328125 263.410156 C 107.191406 262.160156 106.089844 260.878906 105.015625 259.574219 C 103.945312 258.269531 102.90625 256.9375 101.902344 255.582031 C 100.894531 254.222656 99.921875 252.84375 98.984375 251.4375 C 98.046875 250.035156 97.140625 248.609375 96.273438 247.160156 C 95.40625 245.710938 94.574219 244.242188 93.777344 242.75 C 92.980469 241.261719 92.222656 239.753906 91.5 238.226562 C 90.777344 236.699219 90.09375 235.15625 89.445312 233.59375 C 88.800781 232.035156 88.191406 230.457031 87.625 228.867188 C 87.054688 227.277344 86.523438 225.675781 86.035156 224.058594 C 85.542969 222.441406 85.09375 220.8125 84.683594 219.175781 C 84.273438 217.535156 83.902344 215.890625 83.574219 214.230469 C 83.242188 212.574219 82.957031 210.910156 82.707031 209.242188 C 82.460938 207.570312 82.253906 205.894531 82.085938 204.210938 C 81.921875 202.53125 81.796875 200.847656 81.714844 199.160156 C 81.632812 197.472656 81.589844 195.785156 81.589844 194.097656 C 81.589844 192.40625 81.632812 190.71875 81.714844 189.03125 C 81.796875 187.34375 81.921875 185.660156 82.089844 183.980469 C 82.253906 182.296875 82.460938 180.621094 82.710938 178.953125 C 82.957031 177.28125 83.246094 175.617188 83.574219 173.960938 C 83.90625 172.304688 84.273438 170.65625 84.6875 169.019531 C 85.097656 167.378906 85.546875 165.75 86.039062 164.136719 C 86.527344 162.519531 87.058594 160.914062 87.625 159.324219 C 88.195312 157.734375 88.804688 156.160156 89.449219 154.597656 C 90.097656 153.039062 90.78125 151.496094 91.503906 149.96875 C 92.226562 148.441406 92.984375 146.933594 93.78125 145.441406 C 94.578125 143.953125 95.410156 142.484375 96.277344 141.035156 C 97.148438 139.585938 98.050781 138.160156 98.988281 136.753906 C 99.929688 135.351562 100.902344 133.96875 101.90625 132.613281 C 102.914062 131.257812 103.953125 129.925781 105.023438 128.621094 C 106.097656 127.316406 107.199219 126.035156 108.332031 124.785156 C 109.46875 123.535156 110.632812 122.308594 111.828125 121.117188 C 113.019531 119.921875 114.246094 118.757812 115.496094 117.625 C 116.746094 116.488281 118.027344 115.386719 119.332031 114.316406 C 120.636719 113.242188 121.96875 112.203125 123.328125 111.199219 C 124.683594 110.191406 126.0625 109.21875 127.46875 108.28125 C 128.875 107.34375 130.300781 106.441406 131.75 105.570312 C 133.199219 104.703125 134.667969 103.871094 136.15625 103.074219 C 137.648438 102.28125 139.15625 101.519531 140.683594 100.796875 C 142.210938 100.078125 143.753906 99.390625 145.3125 98.746094 C 146.875 98.101562 148.449219 97.492188 150.039062 96.921875 C 151.632812 96.355469 153.234375 95.824219 154.851562 95.335938 C 156.46875 94.84375 158.09375 94.394531 159.734375 93.984375 C 161.371094 93.574219 163.019531 93.203125 164.675781 92.875 C 166.332031 92.546875 167.996094 92.257812 169.667969 92.011719 C 171.339844 91.761719 173.015625 91.554688 174.695312 91.390625 C 176.378906 91.226562 178.0625 91.101562 179.75 91.019531 C 181.433594 90.9375 183.125 90.894531 184.8125 90.894531 C 186.503906 90.890625 188.191406 90.925781 189.882812 91 C 191.570312 91.078125 193.257812 91.199219 194.9375 91.359375 C 196.621094 91.519531 198.300781 91.71875 199.972656 91.964844 C 201.644531 92.207031 203.3125 92.492188 204.96875 92.816406 C 206.628906 93.140625 208.277344 93.507812 209.921875 93.914062 C 211.5625 94.320312 213.191406 94.765625 214.808594 95.253906 C 216.429688 95.742188 218.035156 96.269531 219.628906 96.835938 C 221.21875 97.402344 222.796875 98.003906 224.359375 98.648438 C 225.921875 99.292969 227.46875 99.976562 229 100.695312 C 230.527344 101.417969 232.039062 102.175781 233.53125 102.96875 C 235.023438 103.765625 236.496094 104.59375 237.945312 105.460938 C 239.398438 106.332031 240.824219 107.234375 242.230469 108.171875 C 243.636719 109.109375 245.019531 110.082031 246.378906 111.085938 C 247.738281 112.09375 249.070312 113.132812 250.378906 114.203125 C 251.683594 115.277344 252.964844 116.378906 254.21875 117.515625 C 255.472656 118.648438 256.695312 119.8125 257.890625 121.007812 C 259.085938 122.203125 260.25 123.429688 261.386719 124.683594 C 262.519531 125.933594 263.625 127.214844 264.695312 128.523438 C 265.769531 129.828125 266.808594 131.164062 267.8125 132.519531 C 268.820312 133.878906 269.789062 135.261719 270.730469 136.667969 C 271.667969 138.074219 272.570312 139.503906 273.4375 140.953125 C 274.304688 142.40625 275.136719 143.875 275.929688 145.367188 C 276.726562 146.859375 277.484375 148.371094 278.203125 149.902344 C 278.921875 151.429688 279.605469 152.976562 280.25 154.539062 C 280.894531 156.101562 281.5 157.679688 282.066406 159.273438 C 282.632812 160.867188 283.160156 162.472656 283.644531 164.089844 C 284.132812 165.710938 284.578125 167.339844 284.984375 168.980469 C 285.390625 170.621094 285.757812 172.269531 286.082031 173.929688 C 286.410156 175.589844 286.691406 177.253906 286.9375 178.925781 C 287.179688 180.601562 287.382812 182.277344 287.542969 183.960938 C 287.703125 185.644531 287.820312 187.328125 287.898438 189.019531 C 287.976562 190.707031 288.011719 192.398438 288.003906 194.085938 Z M 288.003906 194.085938 " fill-opacity="1" fill-rule="nonzero"/></g><path fill="#ffffff" d="M 264.417969 259.789062 C 263.199219 261.265625 261.941406 262.707031 260.640625 264.113281 C 259.34375 265.519531 258.007812 266.890625 256.632812 268.222656 C 255.257812 269.554688 253.847656 270.847656 252.398438 272.097656 C 250.953125 273.351562 249.472656 274.566406 247.957031 275.738281 C 246.445312 276.90625 244.898438 278.035156 243.320312 279.121094 C 241.746094 280.207031 240.140625 281.246094 238.503906 282.242188 C 236.871094 283.238281 235.207031 284.1875 233.519531 285.089844 C 231.832031 285.996094 230.121094 286.851562 228.386719 287.65625 C 226.652344 288.464844 224.894531 289.226562 223.117188 289.9375 C 221.339844 290.648438 219.542969 291.308594 217.730469 291.917969 C 215.917969 292.527344 214.085938 293.085938 212.242188 293.597656 C 210.394531 294.105469 208.539062 294.5625 206.667969 294.96875 C 204.796875 295.375 202.914062 295.726562 201.027344 296.027344 C 199.136719 296.328125 197.238281 296.574219 195.332031 296.769531 C 193.429688 296.964844 191.519531 297.109375 189.609375 297.199219 C 187.695312 297.285156 185.785156 297.324219 183.871094 297.304688 C 181.957031 297.289062 180.042969 297.21875 178.132812 297.09375 C 176.222656 296.96875 174.316406 296.792969 172.417969 296.5625 C 170.515625 296.332031 168.625 296.050781 166.742188 295.714844 C 164.855469 295.382812 162.980469 294.992188 161.117188 294.554688 C 159.253906 294.117188 157.40625 293.625 155.570312 293.082031 C 153.734375 292.539062 151.914062 291.949219 150.113281 291.304688 C 148.308594 290.660156 146.527344 289.96875 144.761719 289.226562 C 142.996094 288.484375 141.253906 287.691406 139.535156 286.851562 C 137.816406 286.011719 136.121094 285.125 134.449219 284.191406 C 132.777344 283.257812 131.132812 282.277344 129.515625 281.253906 C 127.902344 280.226562 126.3125 279.160156 124.757812 278.046875 C 123.199219 276.933594 121.675781 275.777344 120.183594 274.578125 C 118.691406 273.378906 117.230469 272.140625 115.808594 270.859375 C 114.382812 269.582031 112.996094 268.261719 111.648438 266.90625 C 110.296875 265.550781 108.984375 264.15625 107.710938 262.726562 C 106.4375 261.296875 105.207031 259.832031 104.015625 258.335938 C 115.007812 242.660156 132.054688 231.78125 167.886719 231.375 C 209.246094 230.875 239.667969 229.367188 252.234375 243.269531 C 256.808594 248.398438 260.871094 253.90625 264.417969 259.789062 Z M 264.417969 259.789062 " fill-opacity="1" fill-rule="nonzero"/><path fill="#14213d" d="M 150.621094 168.0625 C 130.777344 160.882812 134.011719 134.710938 136.828125 134.148438 C 139.644531 133.585938 145.691406 138.226562 145.972656 138.367188 C 146.257812 138.507812 144.566406 126.6875 148.367188 121.199219 C 152.167969 115.710938 166.664062 126.828125 177.78125 126.96875 C 188.898438 127.109375 215.777344 127.8125 223.660156 134.851562 C 231.539062 141.886719 227.449219 156.945312 227.449219 156.945312 C 227.449219 156.945312 236.464844 159.335938 234.632812 172.003906 C 232.800781 184.671875 218.589844 195.546875 213.523438 204.675781 C 208.457031 213.800781 178.363281 215.492188 173.695312 202.261719 " fill-opacity="1" fill-rule="nonzero"/><path fill="#ffb5a6" d="M 183.304688 246.628906 C 168.878906 246.628906 166.753906 234.585938 166.695312 232.550781 C 166.695312 232.316406 166.667969 231.910156 166.695312 231.359375 C 166.667969 230.222656 166.667969 228.476562 166.667969 226.441406 C 166.726562 220.945312 166.785156 213.355469 166.695312 210.097656 L 194.238281 200.238281 L 199.242188 198.433594 L 204.796875 196.457031 C 204.796875 196.457031 204.769531 197.53125 204.710938 199.304688 C 204.683594 200.324219 204.652344 201.574219 204.625 203 C 204.628906 203.167969 204.617188 203.332031 204.59375 203.5 C 204.566406 205.5625 204.535156 207.917969 204.476562 210.390625 C 204.390625 218.15625 204.363281 226.882812 204.769531 230.023438 C 205.523438 236.128906 197.726562 246.628906 183.304688 246.628906 Z M 183.304688 246.628906 " fill-opacity="1" fill-rule="nonzero"/><path fill="#e86b70" d="M 204.824219 203.058594 C 204.757812 203.210938 204.679688 203.355469 204.589844 203.496094 C 194.820312 223.59375 180.132812 231.5625 166.695312 231.359375 C 166.664062 230.222656 166.664062 228.476562 166.664062 226.441406 C 166.722656 220.945312 166.78125 213.355469 166.695312 210.097656 L 194.238281 200.238281 L 204.621094 203 Z M 204.824219 203.058594 " fill-opacity="1" fill-rule="nonzero"/><path fill="#ffb5a6" d="M 150.074219 150.191406 C 166.117188 169.421875 205.738281 165.953125 205.738281 165.953125 C 205.738281 165.953125 206.492188 188.46875 210.429688 188.28125 C 214.371094 188.09375 215.027344 175.617188 224.691406 177.683594 C 234.355469 179.75 228.351562 198.417969 220.84375 199.449219 C 213.339844 200.480469 211.464844 194.101562 211.464844 194.101562 C 211.464844 194.101562 197.625 221.542969 175.671875 221.542969 C 153.714844 221.542969 148.097656 200.496094 148.226562 189.03125 C 148.359375 177.566406 150.074219 150.191406 150.074219 150.191406 Z M 150.074219 150.191406 " fill-opacity="1" fill-rule="nonzero"/></svg>